<svg id="visual" viewBox="0 80 960 200" width="960" height="200" xmlns="http://www.w3.org/2000/svg" xmlns:xlink="http://www.w3.org/1999/xlink" version="1.1"><path d="M0 146L22.8 143.7C45.7 141.3 91.3 136.7 137 140.5C182.7 144.3 228.3 156.7 274 162.2C319.7 167.7 365.3 166.3 411.2 161.2C457 156 503 147 548.8 135.7C594.7 124.3 640.3 110.7 686 114.3C731.7 118 777.3 139 823 144.2C868.7 149.3 914.3 138.7 937.2 133.3L960 128L960 301L937.2 301C914.3 301 868.7 301 823 301C777.3 301 731.7 301 686 301C640.3 301 594.7 301 548.8 301C503 301 457 301 411.2 301C365.3 301 319.7 301 274 301C228.3 301 182.7 301 137 301C91.3 301 45.7 301 22.8 301L0 301Z" fill="#00634f"></path><path d="M0 176L22.8 175.8C45.7 175.7 91.3 175.3 137 174.7C182.7 174 228.3 173 274 162.5C319.7 152 365.3 132 411.2 134.2C457 136.3 503 160.7 548.8 170.7C594.7 180.7 640.3 176.3 686 166.5C731.7 156.7 777.3 141.3 823 131.8C868.7 122.3 914.3 118.7 937.2 116.8L960 115L960 301L937.2 301C914.3 301 868.7 301 823 301C777.3 301 731.7 301 686 301C640.3 301 594.7 301 548.8 301C503 301 457 301 411.2 301C365.3 301 319.7 301 274 301C228.3 301 182.7 301 137 301C91.3 301 45.7 301 22.8 301L0 301Z" fill="#005846"></path><path d="M0 215L22.8 208.3C45.7 201.7 91.3 188.3 137 183C182.7 177.7 228.3 180.3 274 186.5C319.7 192.7 365.3 202.3 411.2 200.7C457 199 503 186 548.8 176C594.7 166 640.3 159 686 157C731.7 155 777.3 158 823 159.5C868.7 161 914.3 161 937.2 161L960 161L960 301L937.2 301C914.3 301 868.7 301 823 301C777.3 301 731.7 301 686 301C640.3 301 594.7 301 548.8 301C503 301 457 301 411.2 301C365.3 301 319.7 301 274 301C228.3 301 182.7 301 137 301C91.3 301 45.7 301 22.8 301L0 301Z" fill="#004c3d"></path><path d="M0 229L22.8 221.5C45.7 214 91.3 199 137 192.7C182.7 186.3 228.3 188.7 274 190.3C319.7 192 365.3 193 411.2 192.3C457 191.7 503 189.3 548.8 189C594.7 188.7 640.3 190.3 686 189.3C731.7 188.3 777.3 184.7 823 191.2C868.7 197.7 914.3 214.3 937.2 222.7L960 231L960 301L937.2 301C914.3 301 868.7 301 823 301C777.3 301 731.7 301 686 301C640.3 301 594.7 301 548.8 301C503 301 457 301 411.2 301C365.3 301 319.7 301 274 301C228.3 301 182.7 301 137 301C91.3 301 45.7 301 22.8 301L0 301Z" fill="#004235"></path><path d="M0 228L22.8 231.2C45.7 234.3 91.3 240.7 137 240.8C182.7 241 228.3 235 274 231.2C319.7 227.3 365.3 225.7 411.2 230.3C457 235 503 246 548.8 246.8C594.7 247.7 640.3 238.3 686 238.5C731.7 238.7 777.3 248.3 823 246.5C868.7 244.7 914.3 231.3 937.2 224.7L960 218L960 301L937.2 301C914.3 301 868.7 301 823 301C777.3 301 731.7 301 686 301C640.3 301 594.7 301 548.8 301C503 301 457 301 411.2 301C365.3 301 319.7 301 274 301C228.3 301 182.7 301 137 301C91.3 301 45.7 301 22.8 301L0 301Z" fill="#00372c"></path><path d="M0 267L22.8 264.3C45.7 261.7 91.3 256.3 137 257.3C182.7 258.3 228.3 265.7 274 266.7C319.7 267.7 365.3 262.3 411.2 257.2C457 252 503 247 548.8 244.8C594.7 242.7 640.3 243.3 686 246.2C731.7 249 777.3 254 823 253.8C868.7 253.7 914.3 248.3 937.2 245.7L960 243L960 301L937.2 301C914.3 301 868.7 301 823 301C777.3 301 731.7 301 686 301C640.3 301 594.7 301 548.8 301C503 301 457 301 411.2 301C365.3 301 319.7 301 274 301C228.3 301 182.7 301 137 301C91.3 301 45.7 301 22.8 301L0 301Z" fill="#002d24"></path></svg>